<svg width="1280" height="780" viewBox="0 0 1280 780" fill="none" xmlns="http://www.w3.org/2000/svg" role="img" aria-labelledby="title desc">
  <title id="title">WebGuard monitoring detail preview</title>
  <desc id="desc">Stylized screenshot of a monitoring detail page with incident timeline and response metrics.</desc>
  <rect width="1280" height="780" rx="30" fill="#0B1220"/>
  <rect x="36" y="36" width="1208" height="708" rx="22" fill="#111827" stroke="#334155"/>

  <rect x="74" y="78" width="1132" height="84" rx="14" fill="#0F172A"/>
  <rect x="96" y="104" width="220" height="12" rx="6" fill="#64748B"/>
  <rect x="96" y="128" width="180" height="10" rx="5" fill="#334155"/>
  <rect x="1020" y="98" width="166" height="44" rx="10" fill="#022C22"/>
  <text x="1103" y="126" text-anchor="middle" fill="#34D399" font-size="20" font-family="Arial" font-weight="700">UP</text>

  <rect x="74" y="186" width="760" height="254" rx="14" fill="#0F172A"/>
  <rect x="94" y="210" width="220" height="12" rx="6" fill="#64748B"/>
  <rect x="94" y="236" width="176" height="10" rx="5" fill="#334155"/>
  <path d="M98 374C170 310 240 344 302 286C360 232 430 240 510 286C570 320 640 292 808 248" stroke="#38BDF8" stroke-width="8" stroke-linecap="round"/>

  <rect x="856" y="186" width="350" height="254" rx="14" fill="#0F172A"/>
  <rect x="878" y="210" width="164" height="12" rx="6" fill="#64748B"/>
  <rect x="878" y="236" width="198" height="10" rx="5" fill="#334155"/>
  <rect x="878" y="276" width="304" height="38" rx="8" fill="#111827" stroke="#1E293B"/>
  <rect x="878" y="328" width="304" height="38" rx="8" fill="#111827" stroke="#1E293B"/>
  <rect x="878" y="380" width="304" height="38" rx="8" fill="#111827" stroke="#1E293B"/>
  <rect x="898" y="288" width="84" height="12" rx="6" fill="#22C55E"/>
  <rect x="898" y="340" width="84" height="12" rx="6" fill="#F97316"/>
  <rect x="898" y="392" width="84" height="12" rx="6" fill="#22C55E"/>

  <rect x="74" y="462" width="1132" height="242" rx="14" fill="#0F172A"/>
  <rect x="94" y="486" width="200" height="12" rx="6" fill="#64748B"/>
  <rect x="94" y="512" width="240" height="10" rx="5" fill="#334155"/>
  <rect x="94" y="546" width="1092" height="130" rx="10" fill="#111827" stroke="#1E293B"/>

  <rect x="120" y="572" width="150" height="14" rx="7" fill="#334155"/>
  <rect x="294" y="572" width="150" height="14" rx="7" fill="#334155"/>
  <rect x="468" y="572" width="150" height="14" rx="7" fill="#334155"/>
  <rect x="642" y="572" width="150" height="14" rx="7" fill="#334155"/>
  <rect x="816" y="572" width="150" height="14" rx="7" fill="#334155"/>
  <rect x="990" y="572" width="150" height="14" rx="7" fill="#334155"/>

  <rect x="120" y="606" width="120" height="10" rx="5" fill="#0F766E"/>
  <rect x="294" y="606" width="90" height="10" rx="5" fill="#0F766E"/>
  <rect x="468" y="606" width="108" height="10" rx="5" fill="#B45309"/>
  <rect x="642" y="606" width="128" height="10" rx="5" fill="#0F766E"/>
  <rect x="816" y="606" width="96" height="10" rx="5" fill="#0F766E"/>
  <rect x="990" y="606" width="88" height="10" rx="5" fill="#0F766E"/>
</svg>
