<svg width="1280" height="780" viewBox="0 0 1280 780" fill="none" xmlns="http://www.w3.org/2000/svg" role="img" aria-labelledby="title desc">
  <title id="title">WebGuard dashboard preview</title>
  <desc id="desc">Stylized screenshot of a monitoring dashboard with uptime charts and status cards.</desc>
  <rect width="1280" height="780" rx="30" fill="#0F172A"/>
  <rect x="38" y="36" width="1204" height="708" rx="22" fill="#111827" stroke="#334155"/>
  <rect x="74" y="76" width="242" height="628" rx="14" fill="#0B1220"/>
  <rect x="354" y="76" width="852" height="90" rx="14" fill="#0B1220"/>
  <rect x="354" y="188" width="408" height="232" rx="14" fill="#0B1220"/>
  <rect x="798" y="188" width="408" height="232" rx="14" fill="#0B1220"/>
  <rect x="354" y="442" width="852" height="262" rx="14" fill="#0B1220"/>

  <rect x="96" y="108" width="198" height="14" rx="7" fill="#334155"/>
  <rect x="96" y="140" width="136" height="10" rx="5" fill="#1E293B"/>
  <rect x="96" y="178" width="198" height="14" rx="7" fill="#334155"/>
  <rect x="96" y="210" width="120" height="10" rx="5" fill="#1E293B"/>
  <rect x="96" y="248" width="198" height="14" rx="7" fill="#334155"/>
  <rect x="96" y="280" width="160" height="10" rx="5" fill="#1E293B"/>
  <rect x="96" y="318" width="198" height="14" rx="7" fill="#334155"/>
  <rect x="96" y="350" width="150" height="10" rx="5" fill="#1E293B"/>

  <rect x="376" y="98" width="140" height="12" rx="6" fill="#475569"/>
  <rect x="376" y="124" width="260" height="10" rx="5" fill="#1E293B"/>
  <rect x="1132" y="98" width="52" height="52" rx="12" fill="#022C22"/>
  <path d="M1148 124L1160 136L1174 112" stroke="#34D399" stroke-width="8" stroke-linecap="round" stroke-linejoin="round"/>

  <rect x="378" y="212" width="140" height="14" rx="7" fill="#64748B"/>
  <rect x="378" y="240" width="228" height="10" rx="5" fill="#1E293B"/>
  <path d="M380 370C445 310 504 356 556 300C605 248 665 262 736 222" stroke="#38BDF8" stroke-width="8" stroke-linecap="round"/>

  <rect x="822" y="212" width="160" height="14" rx="7" fill="#64748B"/>
  <rect x="822" y="240" width="230" height="10" rx="5" fill="#1E293B"/>
  <circle cx="876" cy="330" r="72" fill="#022C22"/>
  <path d="M832 330L858 358L918 296" stroke="#34D399" stroke-width="12" stroke-linecap="round" stroke-linejoin="round"/>

  <rect x="378" y="470" width="170" height="14" rx="7" fill="#64748B"/>
  <rect x="378" y="498" width="220" height="10" rx="5" fill="#1E293B"/>
  <rect x="378" y="534" width="804" height="124" rx="10" fill="#111827" stroke="#1E293B"/>
  <rect x="398" y="554" width="164" height="14" rx="7" fill="#334155"/>
  <rect x="588" y="554" width="164" height="14" rx="7" fill="#334155"/>
  <rect x="778" y="554" width="164" height="14" rx="7" fill="#334155"/>
  <rect x="968" y="554" width="164" height="14" rx="7" fill="#334155"/>
  <rect x="398" y="586" width="140" height="10" rx="5" fill="#0F766E"/>
  <rect x="588" y="586" width="130" height="10" rx="5" fill="#0F766E"/>
  <rect x="778" y="586" width="110" height="10" rx="5" fill="#0F766E"/>
  <rect x="968" y="586" width="150" height="10" rx="5" fill="#0F766E"/>
</svg>
