<svg width="1280" height="780" viewBox="0 0 1280 780" fill="none" xmlns="http://www.w3.org/2000/svg" role="img" aria-labelledby="title desc">
  <title id="title">WebGuard public status labels preview</title>
  <desc id="desc">Stylized screenshot of public status labels showing healthy, degraded, and incident states.</desc>
  <rect width="1280" height="780" rx="30" fill="#0F172A"/>
  <rect x="36" y="36" width="1208" height="708" rx="22" fill="#111827" stroke="#334155"/>

  <rect x="74" y="76" width="1132" height="86" rx="14" fill="#0B1220"/>
  <rect x="96" y="102" width="228" height="14" rx="7" fill="#64748B"/>
  <rect x="96" y="130" width="168" height="10" rx="5" fill="#334155"/>
  <rect x="1040" y="96" width="144" height="46" rx="10" fill="#022C22"/>
  <text x="1112" y="126" text-anchor="middle" fill="#34D399" font-size="18" font-family="Arial" font-weight="700">99.98%</text>

  <rect x="74" y="188" width="1132" height="516" rx="14" fill="#0B1220"/>
  <rect x="96" y="214" width="250" height="14" rx="7" fill="#64748B"/>
  <rect x="96" y="242" width="220" height="10" rx="5" fill="#334155"/>

  <rect x="96" y="278" width="1088" height="92" rx="12" fill="#111827" stroke="#1E293B"/>
  <rect x="96" y="386" width="1088" height="92" rx="12" fill="#111827" stroke="#1E293B"/>
  <rect x="96" y="494" width="1088" height="92" rx="12" fill="#111827" stroke="#1E293B"/>

  <circle cx="136" cy="324" r="15" fill="#22C55E"/>
  <circle cx="136" cy="432" r="15" fill="#F59E0B"/>
  <circle cx="136" cy="540" r="15" fill="#EF4444"/>

  <rect x="166" y="304" width="200" height="12" rx="6" fill="#64748B"/>
  <rect x="166" y="330" width="180" height="10" rx="5" fill="#334155"/>
  <rect x="166" y="412" width="200" height="12" rx="6" fill="#64748B"/>
  <rect x="166" y="438" width="170" height="10" rx="5" fill="#334155"/>
  <rect x="166" y="520" width="200" height="12" rx="6" fill="#64748B"/>
  <rect x="166" y="546" width="184" height="10" rx="5" fill="#334155"/>

  <rect x="982" y="306" width="180" height="36" rx="8" fill="#022C22"/>
  <rect x="982" y="414" width="180" height="36" rx="8" fill="#451A03"/>
  <rect x="982" y="522" width="180" height="36" rx="8" fill="#450A0A"/>

  <text x="1072" y="330" text-anchor="middle" fill="#34D399" font-size="16" font-family="Arial" font-weight="700">Operational</text>
  <text x="1072" y="438" text-anchor="middle" fill="#F59E0B" font-size="16" font-family="Arial" font-weight="700">Degraded</text>
  <text x="1072" y="546" text-anchor="middle" fill="#F87171" font-size="16" font-family="Arial" font-weight="700">Incident</text>
</svg>
